<svg xmlns="http://www.w3.org/2000/svg" viewBox="0 0 512 512" width="512" height="512">
  <defs>
    <linearGradient id="c2_gear" x1="0" y1="0" x2="1" y2="1">
      <stop offset="0%" stop-color="#2E8AA0"/>
      <stop offset="100%" stop-color="#0E3B47"/>
    </linearGradient>
    <radialGradient id="c2_face" cx="50%" cy="38%" r="65%">
      <stop offset="0%" stop-color="#FFFFFF"/>
      <stop offset="100%" stop-color="#EAF2F5"/>
    </radialGradient>
  </defs>
  <path d="M 256.00 76.00 L 270.31 30.45 A 226.00 226.00 0 0 1 306.34 35.68 L 307.12 83.41 A 180.00 180.00 0 0 1 346.00 100.12 L 381.17 67.83 A 226.00 226.00 0 0 1 409.76 90.36 L 386.57 132.10 A 180.00 180.00 0 0 1 411.88 166.00 L 458.48 155.62 A 226.00 226.00 0 0 1 471.97 189.43 L 431.03 213.98 A 180.00 180.00 0 0 1 436.00 256.00 L 481.55 270.31 A 226.00 226.00 0 0 1 476.32 306.34 L 428.59 307.12 A 180.00 180.00 0 0 1 411.88 346.00 L 444.17 381.17 A 226.00 226.00 0 0 1 421.64 409.76 L 379.90 386.57 A 180.00 180.00 0 0 1 346.00 411.88 L 356.38 458.48 A 226.00 226.00 0 0 1 322.57 471.97 L 298.02 431.03 A 180.00 180.00 0 0 1 256.00 436.00 L 241.69 481.55 A 226.00 226.00 0 0 1 205.66 476.32 L 204.88 428.59 A 180.00 180.00 0 0 1 166.00 411.88 L 130.83 444.17 A 226.00 226.00 0 0 1 102.24 421.64 L 125.43 379.90 A 180.00 180.00 0 0 1 100.12 346.00 L 53.52 356.38 A 226.00 226.00 0 0 1 40.03 322.57 L 80.97 298.02 A 180.00 180.00 0 0 1 76.00 256.00 L 30.45 241.69 A 226.00 226.00 0 0 1 35.68 205.66 L 83.41 204.88 A 180.00 180.00 0 0 1 100.12 166.00 L 67.83 130.83 A 226.00 226.00 0 0 1 90.36 102.24 L 132.10 125.43 A 180.00 180.00 0 0 1 166.00 100.12 L 155.62 53.52 A 226.00 226.00 0 0 1 189.43 40.03 L 213.98 80.97 A 180.00 180.00 0 0 1 256.00 76.00 Z" fill="url(#c2_gear)" stroke="#082A33" stroke-width="3" stroke-linejoin="round"/>
  <circle cx="256" cy="256" r="148" fill="url(#c2_face)" stroke="#082A33" stroke-width="3"/>

  <rect x="178" y="181" width="138" height="18" rx="9" fill="#5B7C8A"/>
  <rect x="168" y="207" width="168" height="18" rx="9" fill="#3F6273"/>
  <rect x="196" y="233" width="130" height="18" rx="9" fill="#5B7C8A"/>
  <rect x="174" y="259" width="158" height="18" rx="9" fill="#22C55E"/>
  <rect x="188" y="285" width="144" height="18" rx="9" fill="#3F6273"/>
  <rect x="172" y="311" width="156" height="18" rx="9" fill="#5B7C8A"/>

  <circle cx="396" cy="396" r="74" fill="#22C55E" stroke="#FFFFFF" stroke-width="8"/>
  <path d="M 364 398 L 388 422 L 432 372"
        fill="none" stroke="#FFFFFF" stroke-width="16"
        stroke-linecap="round" stroke-linejoin="round"/>
</svg>
