<svg xmlns="http://www.w3.org/2000/svg" viewBox="0 0 600 350" font-family="system-ui, -apple-system, sans-serif" font-size="12">
  <defs>
    <clipPath id="plot-area">
      <rect x="72" y="20" width="508" height="280"/>
    </clipPath>
  </defs>
  <rect width="600" height="350" fill="#ffffff" rx="8"/>
  <line x1="72" y1="300.0" x2="580" y2="300.0" stroke="#e0e0e0" stroke-width="0.5"/>
  <text x="64" y="300.0" text-anchor="end" dominant-baseline="middle" fill="#333333" font-size="11">0:00</text>
  <line x1="72" y1="268.9" x2="580" y2="268.9" stroke="#e0e0e0" stroke-width="0.5"/>
  <text x="64" y="268.9" text-anchor="end" dominant-baseline="middle" fill="#333333" font-size="11">5:00</text>
  <line x1="72" y1="237.8" x2="580" y2="237.8" stroke="#e0e0e0" stroke-width="0.5"/>
  <text x="64" y="237.8" text-anchor="end" dominant-baseline="middle" fill="#333333" font-size="11">10:00</text>
  <line x1="72" y1="206.7" x2="580" y2="206.7" stroke="#e0e0e0" stroke-width="0.5"/>
  <text x="64" y="206.7" text-anchor="end" dominant-baseline="middle" fill="#333333" font-size="11">15:00</text>
  <line x1="72" y1="175.6" x2="580" y2="175.6" stroke="#e0e0e0" stroke-width="0.5"/>
  <text x="64" y="175.6" text-anchor="end" dominant-baseline="middle" fill="#333333" font-size="11">20:00</text>
  <line x1="72" y1="144.4" x2="580" y2="144.4" stroke="#e0e0e0" stroke-width="0.5"/>
  <text x="64" y="144.4" text-anchor="end" dominant-baseline="middle" fill="#333333" font-size="11">25:00</text>
  <line x1="72" y1="113.3" x2="580" y2="113.3" stroke="#e0e0e0" stroke-width="0.5"/>
  <text x="64" y="113.3" text-anchor="end" dominant-baseline="middle" fill="#333333" font-size="11">30:00</text>
  <line x1="72" y1="82.2" x2="580" y2="82.2" stroke="#e0e0e0" stroke-width="0.5"/>
  <text x="64" y="82.2" text-anchor="end" dominant-baseline="middle" fill="#333333" font-size="11">35:00</text>
  <line x1="72" y1="51.1" x2="580" y2="51.1" stroke="#e0e0e0" stroke-width="0.5"/>
  <text x="64" y="51.1" text-anchor="end" dominant-baseline="middle" fill="#333333" font-size="11">40:00</text>
  <line x1="72" y1="20.0" x2="580" y2="20.0" stroke="#e0e0e0" stroke-width="0.5"/>
  <text x="64" y="20.0" text-anchor="end" dominant-baseline="middle" fill="#333333" font-size="11">45:00</text>
  <line x1="86.9" y1="20" x2="86.9" y2="300" stroke="#e0e0e0" stroke-width="0.5"/>
  <text x="86.9" y="318" text-anchor="middle" fill="#333333" font-size="11">1</text>
  <line x1="101.9" y1="20" x2="101.9" y2="300" stroke="#e0e0e0" stroke-width="0.5"/>
  <text x="101.9" y="318" text-anchor="middle" fill="#333333" font-size="11">2</text>
  <line x1="116.8" y1="20" x2="116.8" y2="300" stroke="#e0e0e0" stroke-width="0.5"/>
  <text x="116.8" y="318" text-anchor="middle" fill="#333333" font-size="11">3</text>
  <line x1="131.8" y1="20" x2="131.8" y2="300" stroke="#e0e0e0" stroke-width="0.5"/>
  <text x="131.8" y="318" text-anchor="middle" fill="#333333" font-size="11">4</text>
  <line x1="146.7" y1="20" x2="146.7" y2="300" stroke="#e0e0e0" stroke-width="0.5"/>
  <text x="146.7" y="318" text-anchor="middle" fill="#333333" font-size="11">5</text>
  <line x1="161.6" y1="20" x2="161.6" y2="300" stroke="#e0e0e0" stroke-width="0.5"/>
  <text x="161.6" y="318" text-anchor="middle" fill="#333333" font-size="11">6</text>
  <line x1="176.6" y1="20" x2="176.6" y2="300" stroke="#e0e0e0" stroke-width="0.5"/>
  <text x="176.6" y="318" text-anchor="middle" fill="#333333" font-size="11">7</text>
  <line x1="191.5" y1="20" x2="191.5" y2="300" stroke="#e0e0e0" stroke-width="0.5"/>
  <text x="191.5" y="318" text-anchor="middle" fill="#333333" font-size="11">8</text>
  <line x1="221.4" y1="20" x2="221.4" y2="300" stroke="#e0e0e0" stroke-width="0.5"/>
  <text x="221.4" y="318" text-anchor="middle" fill="#333333" font-size="11">10</text>
  <line x1="251.3" y1="20" x2="251.3" y2="300" stroke="#e0e0e0" stroke-width="0.5"/>
  <text x="251.3" y="318" text-anchor="middle" fill="#333333" font-size="11">12</text>
  <line x1="281.2" y1="20" x2="281.2" y2="300" stroke="#e0e0e0" stroke-width="0.5"/>
  <text x="281.2" y="318" text-anchor="middle" fill="#333333" font-size="11">14</text>
  <line x1="311.1" y1="20" x2="311.1" y2="300" stroke="#e0e0e0" stroke-width="0.5"/>
  <text x="311.1" y="318" text-anchor="middle" fill="#333333" font-size="11">16</text>
  <line x1="370.8" y1="20" x2="370.8" y2="300" stroke="#e0e0e0" stroke-width="0.5"/>
  <text x="370.8" y="318" text-anchor="middle" fill="#333333" font-size="11">20</text>
  <line x1="430.6" y1="20" x2="430.6" y2="300" stroke="#e0e0e0" stroke-width="0.5"/>
  <text x="430.6" y="318" text-anchor="middle" fill="#333333" font-size="11">24</text>
  <line x1="490.4" y1="20" x2="490.4" y2="300" stroke="#e0e0e0" stroke-width="0.5"/>
  <text x="490.4" y="318" text-anchor="middle" fill="#333333" font-size="11">28</text>
  <line x1="550.1" y1="20" x2="550.1" y2="300" stroke="#e0e0e0" stroke-width="0.5"/>
  <text x="550.1" y="318" text-anchor="middle" fill="#333333" font-size="11">32</text>
  <line x1="72" y1="20" x2="72" y2="300" stroke="#999999" stroke-width="1.5"/>
  <line x1="72" y1="300" x2="580" y2="300" stroke="#999999" stroke-width="1.5"/>
  <text x="326.0" y="345" text-anchor="middle" fill="#333333" font-size="13" font-weight="500">CPU threads</text>
  <text x="16" y="160.0" text-anchor="middle" fill="#333333" font-size="13" font-weight="500" transform="rotate(-90, 16, 160.0)">Run time (mm:ss)</text>
  <g clip-path="url(#plot-area)">
    <line x1="86.9" y1="20.0" x2="86.9" y2="52.2" stroke="#e07c2488" stroke-width="1.5"/>
    <line x1="82.9" y1="52.2" x2="90.9" y2="52.2" stroke="#e07c2488" stroke-width="1.5"/>
    <line x1="101.9" y1="20.0" x2="101.9" y2="140.4" stroke="#e07c2488" stroke-width="1.5"/>
    <line x1="97.9" y1="140.4" x2="105.9" y2="140.4" stroke="#e07c2488" stroke-width="1.5"/>
    <line x1="116.8" y1="166.5" x2="116.8" y2="172.9" stroke="#e07c2488" stroke-width="1.5"/>
    <line x1="112.8" y1="166.5" x2="120.8" y2="166.5" stroke="#e07c2488" stroke-width="1.5"/>
    <line x1="112.8" y1="172.9" x2="120.8" y2="172.9" stroke="#e07c2488" stroke-width="1.5"/>
    <line x1="131.8" y1="20.0" x2="131.8" y2="170.5" stroke="#e07c2488" stroke-width="1.5"/>
    <line x1="127.8" y1="170.5" x2="135.8" y2="170.5" stroke="#e07c2488" stroke-width="1.5"/>
    <line x1="146.7" y1="168.1" x2="146.7" y2="179.2" stroke="#e07c2488" stroke-width="1.5"/>
    <line x1="142.7" y1="168.1" x2="150.7" y2="168.1" stroke="#e07c2488" stroke-width="1.5"/>
    <line x1="142.7" y1="179.2" x2="150.7" y2="179.2" stroke="#e07c2488" stroke-width="1.5"/>
    <line x1="161.6" y1="163.9" x2="161.6" y2="170.7" stroke="#e07c2488" stroke-width="1.5"/>
    <line x1="157.6" y1="163.9" x2="165.6" y2="163.9" stroke="#e07c2488" stroke-width="1.5"/>
    <line x1="157.6" y1="170.7" x2="165.6" y2="170.7" stroke="#e07c2488" stroke-width="1.5"/>
    <line x1="176.6" y1="178.7" x2="176.6" y2="184.5" stroke="#e07c2488" stroke-width="1.5"/>
    <line x1="172.6" y1="178.7" x2="180.6" y2="178.7" stroke="#e07c2488" stroke-width="1.5"/>
    <line x1="172.6" y1="184.5" x2="180.6" y2="184.5" stroke="#e07c2488" stroke-width="1.5"/>
    <line x1="191.5" y1="177.3" x2="191.5" y2="185.3" stroke="#e07c2488" stroke-width="1.5"/>
    <line x1="187.5" y1="177.3" x2="195.5" y2="177.3" stroke="#e07c2488" stroke-width="1.5"/>
    <line x1="187.5" y1="185.3" x2="195.5" y2="185.3" stroke="#e07c2488" stroke-width="1.5"/>
    <line x1="221.4" y1="183.3" x2="221.4" y2="184.9" stroke="#e07c2488" stroke-width="1.5"/>
    <line x1="217.4" y1="183.3" x2="225.4" y2="183.3" stroke="#e07c2488" stroke-width="1.5"/>
    <line x1="217.4" y1="184.9" x2="225.4" y2="184.9" stroke="#e07c2488" stroke-width="1.5"/>
    <line x1="251.3" y1="20.0" x2="251.3" y2="184.1" stroke="#e07c2488" stroke-width="1.5"/>
    <line x1="247.3" y1="184.1" x2="255.3" y2="184.1" stroke="#e07c2488" stroke-width="1.5"/>
    <line x1="281.2" y1="183.3" x2="281.2" y2="186.4" stroke="#e07c2488" stroke-width="1.5"/>
    <line x1="277.2" y1="183.3" x2="285.2" y2="183.3" stroke="#e07c2488" stroke-width="1.5"/>
    <line x1="277.2" y1="186.4" x2="285.2" y2="186.4" stroke="#e07c2488" stroke-width="1.5"/>
    <line x1="311.1" y1="186.1" x2="311.1" y2="190.9" stroke="#e07c2488" stroke-width="1.5"/>
    <line x1="307.1" y1="186.1" x2="315.1" y2="186.1" stroke="#e07c2488" stroke-width="1.5"/>
    <line x1="307.1" y1="190.9" x2="315.1" y2="190.9" stroke="#e07c2488" stroke-width="1.5"/>
    <line x1="370.8" y1="183.7" x2="370.8" y2="188.8" stroke="#e07c2488" stroke-width="1.5"/>
    <line x1="366.8" y1="183.7" x2="374.8" y2="183.7" stroke="#e07c2488" stroke-width="1.5"/>
    <line x1="366.8" y1="188.8" x2="374.8" y2="188.8" stroke="#e07c2488" stroke-width="1.5"/>
    <line x1="430.6" y1="124.1" x2="430.6" y2="190.9" stroke="#e07c2488" stroke-width="1.5"/>
    <line x1="426.6" y1="124.1" x2="434.6" y2="124.1" stroke="#e07c2488" stroke-width="1.5"/>
    <line x1="426.6" y1="190.9" x2="434.6" y2="190.9" stroke="#e07c2488" stroke-width="1.5"/>
    <line x1="490.4" y1="126.9" x2="490.4" y2="184.9" stroke="#e07c2488" stroke-width="1.5"/>
    <line x1="486.4" y1="126.9" x2="494.4" y2="126.9" stroke="#e07c2488" stroke-width="1.5"/>
    <line x1="486.4" y1="184.9" x2="494.4" y2="184.9" stroke="#e07c2488" stroke-width="1.5"/>
    <line x1="550.1" y1="124.6" x2="550.1" y2="189.8" stroke="#e07c2488" stroke-width="1.5"/>
    <line x1="546.1" y1="124.6" x2="554.1" y2="124.6" stroke="#e07c2488" stroke-width="1.5"/>
    <line x1="546.1" y1="189.8" x2="554.1" y2="189.8" stroke="#e07c2488" stroke-width="1.5"/>
    <polyline points="86.9,51.5 101.9,137.4 116.8,171.2 131.8,163.7 146.7,173.9 161.6,166.2 176.6,178.8 191.5,183.6 221.4,183.6 251.3,181.8 281.2,186.1 311.1,186.5 370.8,185.3 430.6,188.6 490.4,184.7 550.1,184.7" fill="none" stroke="#e07c24" stroke-width="2" stroke-linejoin="round"/>
    <circle cx="86.9" cy="51.5" r="4" fill="#e07c24" stroke="#ffffff" stroke-width="1.5"/>
    <circle cx="101.9" cy="137.4" r="4" fill="#e07c24" stroke="#ffffff" stroke-width="1.5"/>
    <circle cx="116.8" cy="171.2" r="4" fill="#e07c24" stroke="#ffffff" stroke-width="1.5"/>
    <circle cx="131.8" cy="163.7" r="4" fill="#e07c24" stroke="#ffffff" stroke-width="1.5"/>
    <circle cx="146.7" cy="173.9" r="4" fill="#e07c24" stroke="#ffffff" stroke-width="1.5"/>
    <circle cx="161.6" cy="166.2" r="4" fill="#e07c24" stroke="#ffffff" stroke-width="1.5"/>
    <circle cx="176.6" cy="178.8" r="4" fill="#e07c24" stroke="#ffffff" stroke-width="1.5"/>
    <circle cx="191.5" cy="183.6" r="4" fill="#e07c24" stroke="#ffffff" stroke-width="1.5"/>
    <circle cx="221.4" cy="183.6" r="4" fill="#e07c24" stroke="#ffffff" stroke-width="1.5"/>
    <circle cx="251.3" cy="181.8" r="4" fill="#e07c24" stroke="#ffffff" stroke-width="1.5"/>
    <circle cx="281.2" cy="186.1" r="4" fill="#e07c24" stroke="#ffffff" stroke-width="1.5"/>
    <circle cx="311.1" cy="186.5" r="4" fill="#e07c24" stroke="#ffffff" stroke-width="1.5"/>
    <circle cx="370.8" cy="185.3" r="4" fill="#e07c24" stroke="#ffffff" stroke-width="1.5"/>
    <circle cx="430.6" cy="188.6" r="4" fill="#e07c24" stroke="#ffffff" stroke-width="1.5"/>
    <circle cx="490.4" cy="184.7" r="4" fill="#e07c24" stroke="#ffffff" stroke-width="1.5"/>
    <circle cx="550.1" cy="184.7" r="4" fill="#e07c24" stroke="#ffffff" stroke-width="1.5"/>
  </g>
</svg>
